HIERARCHY
ROOT hip
{
  OFFSET 0 0 0
  CHANNELS 6 Xposition Yposition Zposition Zrotation Yrotation Xrotation
  JOINT abdomen
  {
    OFFSET 0 20.6881 -0.73152
    CHANNELS 3 Zrotation Xrotation Yrotation
    JOINT chest
    {
      OFFSET 0 11.7043 -0.48768
      CHANNELS 3 Zrotation Xrotation Yrotation
      JOINT neck
      {
        OFFSET 0 22.1894 -2.19456
        CHANNELS 3 Zrotation Xrotation Yrotation
        JOINT head
        {
          OFFSET -0.24384 7.07133 1.2192
          CHANNELS 3 Zrotation Xrotation Yrotation
          JOINT leftEye
          {
            OFFSET 4.14528 8.04674 8.04672
            CHANNELS 3 Zrotation Xrotation Yrotation
            End Site
            {
              OFFSET 1 0 0
            }
          }
          JOINT rightEye
          {
            OFFSET -3.6576 8.04674 8.04672
            CHANNELS 3 Zrotation Xrotation Yrotation
            End Site
            {
              OFFSET 1 0 0
            }
          }
        }
      }
      JOINT rCollar
      {
        OFFSET -2.68224 19.2634 -4.8768
        CHANNELS 3 Zrotation Xrotation Yrotation
        JOINT rShldr
        {
          OFFSET -8.77824 -1.95073 1.46304
          CHANNELS 3 Zrotation Xrotation Yrotation
          JOINT rForeArm
          {
            OFFSET -28.1742 -1.7115 0.48768
            CHANNELS 3 Zrotation Xrotation Yrotation
            JOINT rHand
            {
              OFFSET -22.5879 0.773209 7.07136
              CHANNELS 3 Zrotation Xrotation Yrotation
              JOINT rThumb1
              {
                OFFSET -1.2192 -0.487915 3.41376
                CHANNELS 3 Zrotation Xrotation Yrotation
                JOINT rThumb2
                {
                  OFFSET -3.37035 -0.52449 3.41376
                  CHANNELS 3 Zrotation Xrotation Yrotation
                  End Site
                  {
                    OFFSET -1.78271 -1.18214 1.43049
                  }
                }
              }
              JOINT rIndex1
              {
                OFFSET -7.75947 0.938293 5.60832
                CHANNELS 3 Zrotation Xrotation Yrotation
                JOINT rIndex2
                {
                  OFFSET -2.54057 -0.884171 1.56538
                  CHANNELS 3 Zrotation Xrotation Yrotation
                  End Site
                  {
                    OFFSET -1.62519 -0.234802 1.16502
                  }
                }
              }
              JOINT rMid1
              {
                OFFSET -8.24714 1.18213 3.41376
                CHANNELS 3 Zrotation Xrotation Yrotation
                JOINT rMid2
                {
                  OFFSET -3.10165 -0.590103 1.0647
                  CHANNELS 3 Zrotation Xrotation Yrotation
                  End Site
                  {
                    OFFSET -2.48547 -0.328903 0.83742
                  }
                }
              }
              JOINT rRing1
              {
                OFFSET -8.82822 0.546677 1.51678
                CHANNELS 3 Zrotation Xrotation Yrotation
                JOINT rRing2
                {
                  OFFSET -2.60934 -0.819778 -0.0198488
                  CHANNELS 3 Zrotation Xrotation Yrotation
                  End Site
                  {
                    OFFSET -2.33842 -0.294052 0.168128
                  }
                }
              }
              JOINT rPinky1
              {
                OFFSET -8.27202 -0.0477905 -0.4584
                CHANNELS 3 Zrotation Xrotation Yrotation
                JOINT rPinky2
                {
                  OFFSET -1.82734 -0.647385 -0.700984
                  CHANNELS 3 Zrotation Xrotation Yrotation
                  End Site
                  {
                    OFFSET -1.69225 -0.51767 -0.607171
                  }
                }
              }
            }
          }
        }
      }
      JOINT lCollar
      {
        OFFSET 2.68224 19.2634 -4.8768
        CHANNELS 3 Zrotation Xrotation Yrotation
        JOINT lShldr
        {
          OFFSET 8.77824 -1.95073 1.46304
          CHANNELS 3 Zrotation Xrotation Yrotation
          JOINT lForeArm
          {
            OFFSET 28.1742 -1.7115 0.48768
            CHANNELS 3 Zrotation Xrotation Yrotation
            JOINT lHand
            {
              OFFSET 22.5879 0.773209 7.07136
              CHANNELS 3 Zrotation Xrotation Yrotation
              JOINT lThumb1
              {
                OFFSET 1.2192 -0.487915 3.41376
                CHANNELS 3 Zrotation Xrotation Yrotation
                JOINT lThumb2
                {
                  OFFSET 3.37035 -0.52449 3.41376
                  CHANNELS 3 Zrotation Xrotation Yrotation
                  End Site
                  {
                    OFFSET 1.78271 -1.18214 1.43049
                  }
                }
              }
              JOINT lIndex1
              {
                OFFSET 7.75947 0.938293 5.60832
                CHANNELS 3 Zrotation Xrotation Yrotation
                JOINT lIndex2
                {
                  OFFSET 2.54057 -0.884171 1.56538
                  CHANNELS 3 Zrotation Xrotation Yrotation
                  End Site
                  {
                    OFFSET 1.62519 -0.234802 1.16502
                  }
                }
              }
              JOINT lMid1
              {
                OFFSET 8.24714 1.18213 3.41376
                CHANNELS 3 Zrotation Xrotation Yrotation
                JOINT lMid2
                {
                  OFFSET 3.10165 -0.590103 1.0647
                  CHANNELS 3 Zrotation Xrotation Yrotation
                  End Site
                  {
                    OFFSET 2.48547 -0.328903 0.83742
                  }
                }
              }
              JOINT lRing1
              {
                OFFSET 8.82822 0.546677 1.51678
                CHANNELS 3 Zrotation Xrotation Yrotation
                JOINT lRing2
                {
                  OFFSET 2.60934 -0.819778 -0.0198488
                  CHANNELS 3 Zrotation Xrotation Yrotation
                  End Site
                  {
                    OFFSET 2.33842 -0.294052 0.168128
                  }
                }
              }
              JOINT lPinky1
              {
                OFFSET 8.27202 -0.0477905 -0.4584
                CHANNELS 3 Zrotation Xrotation Yrotation
                JOINT lPinky2
                {
                  OFFSET 1.82734 -0.647385 -0.700984
                  CHANNELS 3 Zrotation Xrotation Yrotation
                  End Site
                  {
                    OFFSET 1.69225 -0.51767 -0.607171
                  }
                }
              }
            }
          }
        }
      }
    }
  }
  JOINT rButtock
  {
    OFFSET -8.77824 4.35084 1.2192
    CHANNELS 3 Zrotation Xrotation Yrotation
    JOINT rThigh
    {
      OFFSET 0 -1.70687 -2.19456
      CHANNELS 3 Zrotation Xrotation Yrotation
      JOINT rShin
      {
        OFFSET 0 -36.8199 0.73152
        CHANNELS 3 Zrotation Xrotation Yrotation
        JOINT rFoot
        {
          OFFSET 0.73152 -45.1104 -5.12064
          CHANNELS 3 Zrotation Xrotation Yrotation
          End Site
          {
            OFFSET -1.1221 -3.69964 12.103
          }
        }
      }
    }
  }
  JOINT lButtock
  {
    OFFSET 8.77824 4.35084 1.2192
    CHANNELS 3 Zrotation Xrotation Yrotation
    JOINT lThigh
    {
      OFFSET 0 -1.70687 -2.19456
      CHANNELS 3 Zrotation Xrotation Yrotation
      JOINT lShin
      {
        OFFSET 0 -36.8199 0.73152
        CHANNELS 3 Zrotation Xrotation Yrotation
        JOINT lFoot
        {
          OFFSET -0.73152 -45.1104 -5.12064
          CHANNELS 3 Zrotation Xrotation Yrotation
          End Site
          {
            OFFSET 1.1221 -3.69964 12.103
          }
        }
      }
    }
  }
}
MOTION
Frames:	4
Frame Time:	0.03333
-0.009080000018002465 56.74499869346619 0.08299999753944576 11.97359994524103 34.27319940601782 8.663300098896514 -19.01170007358897 12.902599587463852 3.6698798509548918 5.383299825483821 -9.579240419426272 0.9439780336292483 -9.270059953814597 16.94759983093819 -12.262000414076587 9.728679835824273 -26.27390041615232 -21.99009968382141 -0.0 0.0 0.0 -0.0 0.0 0.0 5.387810055560832e-14 3.116100111876546e-13 -8.726159651879143e-13 36.02340122988773 16.312499813606433 35.52230098633516 -14.368300126740644 -7.255510172271323 26.298099776381676 -0.47555597638695746 19.21869920166996 2.808219897532872 2.363500001495678e-09 1.3056899549674432e-09 1.805840030621951e-09 4.108330035863793e-09 2.4294100398056435e-09 3.08632995388649e-09 2.363500001495678e-09 1.30566997710835e-09 1.8058300913885715e-09 7.730910121524428 5.474879855648998 0.41731399283890674 2.3634900622622984e-09 1.30566997710835e-09 1.805840030621951e-09 2.90554006136521 0.9651829962377875 0.10290200252939893 2.363500001495678e-09 1.3056999935931565e-09 1.805840030621951e-09 10.278599710243157 0.7318009818271524 0.025912300303053633 2.3634900622622984e-09 1.3056999935931565e-09 1.8058499698553307e-09 2.221669932038622 -0.7334870246959406 -0.20891999872313852 5.385549705001e-14 3.1160498818641057e-13 -8.728810437656449e-13 -112.30800139038678 47.853999212023496 50.68100084911343 27.903300099266808 -40.895901089423916 -85.54290108988381 3.757279805348021 -46.92099878649434 8.644079946572099 1.5742800452150012e-09 1.4011599690945969e-09 2.1875701040988686e-10 2.7162300755640125e-09 2.3290899779662596e-09 4.207590078463246e-10 1.5742800452150012e-09 1.4011500298612173e-09 2.18763992721336e-10 -7.730910121524428 5.474879855648998 -0.41731399283890674 1.5742800452150012e-09 1.4011599690945969e-09 2.1875400379178952e-10 -2.90554006136521 0.9651829962377875 -0.10290200252939893 1.5742700065892877e-09 1.4011599690945969e-09 2.1875199109703016e-10 -10.278599710243157 0.7318009818271524 -0.025912300303053633 1.5742899844483807e-09 1.4011599690945969e-09 2.1873998947272434e-10 -2.221669932038622 -0.7334870246959406 0.20891999872313852 -2.0321699793705798e-16 0.0 -3.882510030490358e-19 -59.8343012803876 -51.771201493485016 -47.130501178906144 -1.584060033630296 66.94749933865984 2.3124700399779488 1.9344000729541138 -1.5383299961463566 11.424100127456104 2.0321699793705798e-16 0.0 3.882510030490358e-19 13.308399909074527 10.693500405149226 -1.230529975798965 -0.17169800238708133 27.136399629068606 -2.3328600756411406 3.230200083513661 -10.374599726574978 30.14989958144574
-0.018670000281417742 56.7234992980957 0.15499999863095582 11.93379957917372 34.03429987941828 8.691099822592113 -19.048600170579963 12.698200200135696 3.6504001514420152 5.406499843660239 -9.472389793824238 0.9400960315814479 -9.25048036278511 17.057600027521246 -12.346099679553308 9.772639787096121 -26.456199872647254 -22.15109919538966 -0.0 0.0 0.0 -0.0 0.0 0.0 -1.6237300437031452e-13 3.268870023566483e-14 7.151830218768779e-13 35.80889913900348 16.178399294536987 35.88479961615525 -14.299499631231106 -7.198630064410749 26.158599992773336 -0.4711990093875769 19.134899610743073 2.795000066394312 -1.8273900776508747e-09 -3.7162101835582062e-09 -5.644920011141783e-10 -3.1610499298794416e-09 -6.517719875442297e-09 -9.47979032875603e-10 -1.8273799396328274e-09 -3.716199846755491e-09 -5.645089972032573e-10 7.730910121524428 5.474879855648998 0.41731399283890674 -1.8273900776508747e-09 -3.7162101835582062e-09 -5.644949828841921e-10 2.90554006136521 0.9651829962377875 0.10290200252939893 -1.8273900776508747e-09 -3.7162101835582062e-09 -5.644949828841921e-10 10.278599710243157 0.7318009818271524 0.025912300303053633 -1.8274000168842542e-09 -3.716199846755491e-09 -5.644869818013216e-10 2.221669932038622 -0.7334870246959406 -0.20891999872313852 -1.6231699911972844e-13 3.268729889111485e-14 7.148960071004775e-13 -112.28499731326217 47.972800107352114 50.71830051217088 27.898899749894024 -40.91620041163719 -85.58000267745533 3.726289956423204 -46.78130092740007 8.60160983031296 -9.682620264332986e-10 -1.611350006381461e-09 1.6537999751839504e-10 -1.6870399521599257e-09 -2.783030072830785e-09 2.7348300090373783e-10 -9.682650082033125e-10 -1.611350006381461e-09 1.6538500440721002e-10 -7.730910121524428 5.474879855648998 -0.41731399283890674 -9.682610325099606e-10 -1.611350006381461e-09 1.6538100386577473e-10 -2.90554006136521 0.9651829962377875 -0.10290200252939893 -9.682679899733263e-10 -1.611350006381461e-09 1.6537799724767742e-10 -10.278599710243157 0.7318009818271524 -0.025912300303053633 -9.68256957424275e-10 -1.611350006381461e-09 1.6537300278290418e-10 -2.221669932038622 -0.7334870246959406 0.20891999872313852 -2.0321699793705798e-16 0.0 -3.882510030490358e-19 -59.95690317598933 -51.96449926209097 -47.39659851878067 -1.6016699688578813 67.09350146235802 2.323909966507485 1.9355501060556146 -1.5492199857260014 11.522899667573984 2.0321699793705798e-16 0.0 3.882510030490358e-19 13.268100085424159 10.927999582375982 -1.0997799846825282 -0.17549299956424322 26.89099946992651 -2.33161996941996 3.187979909489462 -10.29889988623008 30.177698451367693
-0.01647000026423484 56.67110085487366 0.2199999988079071 11.811100353376318 33.84010052584189 8.743199651807323 -18.962199985126595 12.455100107196603 3.59159008825409 5.393919915869545 -9.366340007902389 0.9304389978686962 -9.251550141163863 17.14470030736454 -12.397799942702074 9.805879756465634 -26.46750042062904 -22.253000495164372 -0.0 0.0 0.0 -0.0 0.0 0.0 -2.4099399047078236e-13 1.1603399796576736e-13 6.389290098505729e-13 35.576300461913284 16.109100195218037 36.1764008823906 -14.22919990919875 -7.1408902064883994 26.016400576895546 -0.46925400629971004 19.097299419362155 2.7890599362505166 -1.780250082793566e-09 -4.536309847064211e-09 -2.190699968690096e-10 -3.076949901776851e-09 -7.918250094709964e-09 -3.530939990985276e-10 -1.7802399447755188e-09 -4.536299907830832e-09 -2.190869929580887e-10 7.730910121524428 5.474879855648998 0.41731399283890674 -1.780250082793566e-09 -4.536309847064211e-09 -2.1907700402854221e-10 2.90554006136521 0.9651829962377875 0.10290200252939893 -1.7802399447755188e-09 -4.536320183866925e-09 -2.19072009563769e-10 10.278599710243157 0.7318009818271524 0.025912300303053633 -1.7802600220269454e-09 -4.536309847064211e-09 -2.190669902509123e-10 2.221669932038622 -0.7334870246959406 -0.20891999872313852 -2.409280120148276e-13 1.1603599988655303e-13 6.386130218206198e-13 -112.24299848005576 48.169499310164724 50.74929932571898 27.9045995427564 -40.89039937204747 -85.53230063629195 3.733109900309462 -46.81229974094817 8.610999632874435 -9.134739902750756e-10 -1.5082700182172369e-09 1.85992004549038e-10 -1.5953300494125983e-09 -2.6167200612450635e-09 3.120569917132784e-10 -9.134779659684275e-10 -1.5082799574506164e-09 1.860020059026262e-10 -7.730910121524428 5.474879855648998 -0.41731399283890674 -9.134739902750756e-10 -1.5082700182172369e-09 1.8599699901381124e-10 -2.90554006136521 0.9651829962377875 -0.10290200252939893 -9.134810471307751e-10 -1.5082700182172369e-09 1.859949987430936e-10 -10.278599710243157 0.7318009818271524 -0.025912300303053633 -9.134710085050617e-10 -1.5082700182172369e-09 1.85992004549038e-10 -2.221669932038622 -0.7334870246959406 0.20891999872313852 -2.0321699793705798e-16 0.0 -3.882510030490358e-19 -60.06279842888121 -52.13919842558697 -47.69630038937166 -1.6209000463009349 67.25420215315009 2.337750064200047 1.9385299895244443 -1.548809960932389 11.613800093916746 2.0321699793705798e-16 0.0 3.882510030490358e-19 13.356399917240438 11.0590999408525 -0.9259819792701456 -0.1776970028918285 26.744900016032645 -2.3323700095681925 3.1575300723958986 -10.275700294940485 30.11549933369097
0.010710000060498714 56.60730004310608 0.28199999942444265 11.649700421967978 33.73820093361447 8.761600181431337 -18.753100573875823 12.173300162420217 3.493619989233543 5.345609987870045 -9.261099599397186 0.9150130156282225 -9.273499807835345 17.208900670468076 -12.417100349749237 9.829479767595322 -26.308000135583608 -22.29560038501774 -0.0 0.0 0.0 -0.0 0.0 0.0 -1.8198400237964131e-13 5.616459862747216e-13 -1.1013800395861745e-12 35.32470019855211 16.104199534488554 36.397299445432566 -14.15749999838654 -7.082290171617452 25.871600566491278 -0.46969097832403217 19.10570055204127 2.7903999339883088 2.5049100468342245e-09 -1.1546300073330024e-09 2.8420999307289283e-09 4.360639860620277e-09 -1.7721700824099755e-09 4.8709900745305725e-09 2.5049199860676043e-09 -1.154619968707289e-09 2.8420999307289283e-09 7.730910121524428 5.474879855648998 0.41731399283890674 2.5049100468342245e-09 -1.1546300073330024e-09 2.8420999307289283e-09 2.90554006136521 0.9651829962377875 0.10290200252939893 2.5049199860676043e-09 -1.1546300073330024e-09 2.8420999307289283e-09 10.278599710243157 0.7318009818271524 0.025912300303053633 2.5049100468342245e-09 -1.1546300073330024e-09 2.8421100687469756e-09 2.221669932038622 -0.7334870246959406 -0.20891999872313852 -1.8197499980253238e-13 5.616500143819995e-13 -1.101730048136631e-12 -112.18500334381318 48.444499801622364 50.77489887472819 27.919800128754265 -40.818098404588305 -85.40040285322983 3.7779897926851462 -47.014101095070785 8.672460236347147 1.7386400786039843e-09 1.7103800551205105e-09 2.805940005770702e-10 2.991359982590662e-09 2.8280200127234245e-09 5.364819990463677e-10 1.7386400786039843e-09 1.7103800551205105e-09 2.806140032842466e-10 -7.730910121524428 5.474879855648998 -0.41731399283890674 1.7386400786039843e-09 1.7103800551205105e-09 2.8060299558327875e-10 -2.90554006136521 0.9651829962377875 -0.10290200252939893 1.738629940585937e-09 1.7103800551205105e-09 2.806020016599408e-10 -10.278599710243157 0.7318009818271524 -0.025912300303053633 1.7386400786039843e-09 1.7103800551205105e-09 2.8059700719516756e-10 -2.221669932038622 -0.7334870246959406 0.20891999872313852 -2.0321699793705798e-16 0.0 -3.882510030490358e-19 -60.15230122776506 -52.29489941790658 -48.029398469909424 -1.6418100301146943 67.42930088271252 2.3540900111288328 1.943300022886052 -1.537109953605863 11.696599915903871 2.0321699793705798e-16 0.0 3.882510030490358e-19 13.573799715880067 11.086699881514875 -0.7092539937684115 -0.17832300573751603 26.698200305129973 -2.3350801005648063 3.138820049825118 -10.30509999044916 29.963500303901508
